<svg width="491" height="359" viewBox="0 0 491 359" fill="none" xmlns="http://www.w3.org/2000/svg">
<path d="M47.0685 107C77.1649 80.1418 144.068 71.5 144.068 71.5V293.5H226.568V204L388.569 358.5H144.068C144.068 358.5 77.3437 352.879 47.0685 327C12.5713 297.513 1.60486 265.871 0.568499 220.5C-0.525357 172.612 11.3299 138.893 47.0685 107Z" fill="#FF5545" stroke="black"/>
<path d="M443.568 251.5C413.472 278.358 346.568 287 346.568 287V65H264.068V154.5L102.068 0H346.568C346.568 0 413.293 5.62143 443.568 31.5C478.066 60.9874 489.032 92.6295 490.068 138C491.162 185.888 479.307 219.607 443.568 251.5Z" fill="#FF5545"/>
</svg>
